#!OML:ASF H:\LiuWeirdWalks\Patient Classification 1\Patient 1\Session 1\male.ASF
:FULLY-SPECIFIED
:DEGREES
556
root 1.62648 18.0347 15.2035 1.94015 6.66202 5.8483
lowerback 4.17197 -1.35227 -8.36983
upperback -1.47744 -2.23809 1.24403
thorax -3.52225 -0.908615 6.16208
lowerneck -20.9585 0.949805 3.59621
upperneck 26.0398 1.74004 -5.42671
head 12.1482 0.411579 -2.37297
rclavicle -1.85677e-014 -5.56597e-015
rhumerus -44.1144 -13.7842 -66.7728
rradius 28.2608
rwrist -2.93047
rhand -14.984 -0.665544
rfingers 7.12502
rthumb 11.1802 -30.3477
lclavicle -1.85677e-014 -5.56597e-015
lhumerus -41.3616 -1.27326 81.3547
lradius 39.1811
lwrist 6.20406
lhand -11.1701 -1.1185
lfingers 7.12502
lthumb 14.8566 28.3289
rfemur -26.8294 -2.90329 14.3
rtibia 24.7818
rfoot -8.65916 -18.4236
rtoes -12.0305
lfemur 16.5657 -4.92909 -28.2513
ltibia 11.206
lfoot -2.99721 5.37386
ltoes -26.9919
557
root 1.60972 18.047 15.3757 1.91961 6.70487 5.56686
lowerback 4.07723 -1.47509 -8.19385
upperback -1.50446 -2.38219 1.31704
thorax -3.47574 -0.985052 6.14452
lowerneck -21.0175 1.10385 3.87195
upperneck 26.1567 1.902 -5.54435
head 12.2193 0.494885 -2.44142
rclavicle 2.37672e-014 -4.77083e-015
rhumerus -44.0539 -13.5984 -66.9189
rradius 28.1379
rwrist -2.85387
rhand -15.0167 -0.672951
rfingers 7.12502
rthumb 11.1487 -30.3568
lclavicle 2.37672e-014 -4.77083e-015
lhumerus -41.5634 -0.889862 81.1113
lradius 39.0856
lwrist 6.17566
lhand -11.1784 -1.13508
lfingers 7.12502
lthumb 14.8487 28.3129
rfemur -26.3929 -2.73217 14.6856
rtibia 24.7946
rfoot -7.79386 -18.4726
rtoes -12.0445
lfemur 16.4674 -5.18314 -27.9097
ltibia 12.303
lfoot -2.19893 5.02665
ltoes -26.7635
558
root 1.59371 18.0617 15.5489 1.88733 6.72455 5.20119
lowerback 3.96385 -1.46463 -7.81522
upperback -1.54502 -2.33603 1.40425
thorax -3.47077 -0.968761 6.01573
lowerneck -21.0865 1.08019 3.81787
upperneck 26.3135 1.88056 -5.50684
head 12.2928 0.483742 -2.42551
rclavicle -1.0124e-014 6.36111e-015
rhumerus -44.1766 -13.6632 -66.7923
rradius 28.0424
rwrist -2.78785
rhand -15.0492 -0.66756
rfingers 7.12502
rthumb 11.1173 -30.3531
lclavicle -1.0124e-014 6.36111e-015
lhumerus -41.6942 -0.798359 81.1039
lradius 38.9176
lwrist 6.14393
lhand -11.2146 -1.17142
lfingers 7.12502
lthumb 14.8138 28.2791
rfemur -25.9625 -2.59863 15.1621
rtibia 24.7478
rfoot -6.64092 -18.4987
rtoes -11.8872
lfemur 16.2552 -5.41351 -27.4776
ltibia 13.5913
lfoot -1.33099 4.63606
ltoes -26.4694
559
root 1.57888 18.0828 15.7232 1.84247 6.71761 4.76686
lowerback 3.84582 -1.45155 -7.3602
upperback -1.5328 -2.28047 1.50859
thorax -3.41074 -0.953407 5.85955
lowerneck -21.3245 1.07507 3.79105
upperneck 26.463 1.87778 -5.49318
head 12.3996 0.478282 -2.42116
rclavicle -1.54881e-014 5.56597e-015
rhumerus -44.1719 -13.7711 -66.6933
rradius 27.9158
rwrist -2.70126
rhand -15.0796 -0.675868
rfingers 7.12502
rthumb 11.088 -30.363
lclavicle -1.54881e-014 5.56597e-015
lhumerus -41.6935 -0.643174 81.0722
lradius 38.689
lwrist 6.08868
lhand -11.2545 -1.21788
lfingers 7.12502
lthumb 14.7753 28.2355
rfemur -25.5054 -2.56174 15.732
rtibia 24.6684
rfoot -5.32298 -18.3727
rtoes -11.4451
lfemur 15.9119 -5.59161 -26.9641
ltibia 15.0956
lfoot -0.465292 4.22069
ltoes -26.3911
560
root 1.56518 18.0971 15.8968 1.78753 6.67317 4.29987
lowerback 3.71174 -1.42071 -6.85269
upperback -1.53522 -2.19898 1.61843
thorax -3.36184 -0.92503 5.67769
lowerneck -21.4778 1.04652 3.73165
upperneck 26.5924 1.85153 -5.46832
head 12.4798 0.461709 -2.40991
rclavicle -3.16968e-015 -1.59028e-015
rhumerus -44.2032 -13.9115 -66.5427
rradius 27.7599
rwrist -2.56345
rhand -15.0958 -0.677826
rfingers 7.12502
rthumb 11.0724 -30.3658
lclavicle -3.16968e-015 -1.59028e-015
lhumerus -41.7155 -0.485625 81.0466
lradius 38.4244
lwrist 6.01798
lhand -11.2906 -1.25013
lfingers 7.12502
lthumb 14.7406 28.2057
rfemur -25.0513 -2.62329 16.3618
rtibia 24.6102
rfoot -4.0151 -18.0147
rtoes -10.7075
lfemur 15.4413 -5.6912 -26.4016
ltibia 16.8134
lfoot 0.415829 3.77625
ltoes -26.4578
561
root 1.55214 18.1102 16.0696 1.72229 6.59027 3.82194
lowerback 3.58565 -1.37275 -6.32719
upperback -1.561 -2.09632 1.73243
thorax -3.34438 -0.88433 5.48973
lowerneck -21.5221 1.00755 3.67449
upperneck 26.7074 1.81673 -5.45778
head 12.5321 0.441068 -2.405
rclavicle 3.21651e-014 -1.43125e-014
rhumerus -44.2792 -14.0706 -66.3438
rradius 27.5875
rwrist -2.40127
rhand -15.1181 -0.660711
rfingers 7.12502
rthumb 11.0509 -30.3498
lclavicle 3.21651e-014 -1.43125e-014
lhumerus -41.7871 -0.306473 81.0194
lradius 38.1457
lwrist 5.92081
lhand -11.3123 -1.26831
lfingers 7.12502
lthumb 14.7196 28.1891
rfemur -24.5978 -2.75761 17.0277
rtibia 24.6273
rfoot -2.91923 -17.445
rtoes -9.66756
lfemur 14.8447 -5.69333 -25.8024
ltibia 18.7221
lfoot 1.33203 3.28782
ltoes -26.7121
562
root 1.5393 18.1219 16.241 1.65042 6.47048 3.38588
lowerback 3.48389 -1.31036 -5.844
upperback -1.61944 -1.98032 1.83427
thorax -3.37448 -0.833559 5.31394
lowerneck -21.4471 0.969343 3.63269
upperneck 26.8102 1.7834 -5.45658
head 12.5557 0.422959 -2.40503
rclavicle 9.72181e-016 -1.66979e-014
rhumerus -44.4269 -14.2117 -66.1211
rradius 27.4374
rwrist -2.24979
rhand -15.125 -0.676348
rfingers 7.12502
rthumb 11.0442 -30.3658
lclavicle 9.72181e-016 -1.66979e-014
lhumerus -41.9339 -0.114256 80.9822
lradius 37.8762
lwrist 5.80533
lhand -11.311 -1.2685
lfingers 7.12502
lthumb 14.7209 28.1888
rfemur -24.157 -2.92151 17.6614
rtibia 24.7613
rfoot -2.16302 -16.7586
rtoes -8.4185
lfemur 14.1451 -5.59821 -25.2169
ltibia 20.7636
lfoot 2.35867 2.74304
ltoes -27.0541
563
root 1.52607 18.1283 16.4099 1.57242 6.31175 3.03312
lowerback 3.41656 -1.23418 -5.46187
upperback -1.69079 -1.85422 1.91928
thorax -3.43517 -0.774515 5.17873
lowerneck -21.3036 0.936761 3.60083
upperneck 26.8928 1.75685 -5.45941
head 12.5578 0.409253 -2.40621
rclavicle 2.60905e-016 -5.56597e-015
rhumerus -44.6011 -14.3195 -65.8979
rradius 27.3161
rwrist -2.12361
rhand -15.1212 -0.689885
rfingers 7.12502
rthumb 11.0479 -30.3791
lclavicle 2.60905e-016 -5.56597e-015
lhumerus -42.1296 0.107567 80.9348
lradius 37.6387
lwrist 5.68239
lhand -11.2722 -1.25196
lfingers 7.12502
lthumb 14.7583 28.2026
rfemur -23.7267 -3.04393 18.2023
rtibia 24.9975
rfoot -1.75744 -16.0868
rtoes -7.10344
lfemur 13.3899 -5.40895 -24.6877
ltibia 22.84
lfoot 3.60458 2.12283
ltoes -27.3233
564
root 1.51233 18.1379 16.5773 1.47913 6.12814 2.77018
lowerback 3.39212 -1.1484 -5.18299
upperback -1.76504 -1.72353 1.98095
thorax -3.52065 -0.710473 5.07869
lowerneck -21.1517 0.910157 3.57444
upperneck 26.983 1.73661 -5.45972
head 12.5616 0.399346 -2.40639
rclavicle -4.34841e-017 1.19271e-014
rhumerus -44.7706 -14.4099 -65.6861
rradius 27.1987
rwrist -2.04527
rhand -15.1162 -0.72318
rfingers 7.12502
rthumb 11.0526 -30.4122
lclavicle -4.34841e-017 1.19271e-014
lhumerus -42.3643 0.336473 80.8784
lradius 37.4428
lwrist 5.57849
lhand -11.2101 -1.23883
lfingers 7.12502
lthumb 14.8181 28.2114
rfemur -23.2723 -3.10099 18.6319
rtibia 25.3156
rfoot -1.71131 -15.5051
rtoes -5.82332
lfemur 12.6021 -5.15083 -24.2202
ltibia 24.9138
lfoot 5.12585 1.42221
ltoes -27.4075
565
root 1.4988 18.146 16.7424 1.35489 5.93248 2.58722
lowerback 3.43742 -1.06107 -4.99459
upperback -1.78513 -1.59841 2.02145
thorax -3.58608 -0.649482 5.00887
lowerneck -21.1771 0.8989 3.54866
upperneck 27.0927 1.73135 -5.45171
head 12.6102 0.39495 -2.40266
rclavicle -2.71093e-014 6.36111e-015
rhumerus -44.8156 -14.5216 -65.5265
rradius 27.0831
rwrist -1.99031
rhand -15.1224 -0.787604
rfingers 7.12502
rthumb 11.0467 -30.4769
lclavicle -2.71093e-014 6.36111e-015
lhumerus -42.5154 0.595374 80.8106
lradius 37.2814
lwrist 5.49923
lhand -11.1485 -1.24113
lfingers 7.12502
lthumb 14.8774 28.2047
rfemur -22.7818 -3.11563 18.9562
rtibia 25.6884
rfoot -1.93101 -15.0123
rtoes -4.67446
lfemur 11.7996 -4.85003 -23.8119
ltibia 26.985
lfoot 6.89099 0.642111
ltoes -27.2486
